<?xml version="1.0" standalone="no"?>
<!DOCTYPE svg PUBLIC "-//W3C//DTD SVG 20010904//EN"
 "http://www.w3.org/TR/2001/REC-SVG-20010904/DTD/svg10.dtd">
<svg version="1.0" xmlns="http://www.w3.org/2000/svg"
 width="200.000000pt" height="200.000000pt" viewBox="0 0 200.000000 200.000000"
 preserveAspectRatio="xMidYMid meet">
<metadata>
Created by potrace 1.14, written by Peter Selinger 2001-2017
</metadata>
<g transform="translate(0.000000,200.000000) scale(0.100000,-0.100000)"
fill="#000000" stroke="none">
<path d="M1269 1898 c-7 -24 -5 -41 8 -53 8 -8 12 -19 9 -23 -3 -5 1 -18 9
-28 14 -18 15 -17 11 9 -3 16 -10 35 -16 42 -7 8 -9 23 -5 35 4 11 2 20 -4 20
-6 0 -11 -1 -12 -2z"/>
<path d="M1235 1881 c-8 -13 5 -61 16 -61 12 0 11 -37 -1 -45 -6 -4 -7 1 -3
12 4 14 3 15 -6 7 -10 -9 -9 -21 3 -55 8 -24 15 -38 16 -31 0 10 4 10 16 -2
21 -21 21 -21 22 19 1 19 -5 41 -14 50 -8 8 -14 25 -12 37 2 13 -2 22 -9 21
-6 -1 -10 8 -8 23 2 26 -9 41 -20 25z m45 -143 c0 -6 -6 -5 -15 2 -8 7 -15 14
-15 16 0 2 7 1 15 -2 8 -4 15 -11 15 -16z"/>
<path d="M1197 1863 c-9 -2 -14 -9 -11 -15 4 -6 -1 -8 -14 -4 -11 4 -23 2 -27
-4 -3 -6 -11 -7 -17 -4 -8 5 -9 1 -5 -10 5 -14 3 -15 -12 -6 -14 7 -20 6 -24
-5 -4 -8 2 -16 14 -20 10 -4 19 -11 19 -16 0 -12 -7 -11 -32 2 -12 7 -18 7
-14 1 3 -6 0 -13 -6 -15 -8 -3 -6 -6 5 -6 10 -1 15 -6 12 -11 -4 -6 -11 -7
-17 -4 -22 14 0 -80 22 -98 27 -22 52 -24 44 -3 -4 8 -12 15 -20 15 -16 0 -44
39 -44 60 1 8 6 2 13 -13 l12 -29 14 46 c7 25 17 46 23 46 5 0 6 5 3 10 -3 6
-1 10 5 10 6 0 9 -8 5 -18 -4 -15 2 -21 27 -28 41 -12 57 -51 41 -94 -8 -21
-8 -32 -1 -37 7 -4 8 -1 3 7 -5 9 -4 11 3 6 7 -4 12 -15 12 -24 0 -12 -3 -13
-12 -4 -7 7 -18 12 -25 12 -22 0 -14 -19 15 -34 22 -11 29 -11 39 -1 8 8 8 16
1 23 -6 6 -4 14 9 23 21 16 26 33 17 61 -5 16 -8 17 -14 7 -5 -7 -6 -17 -4
-21 9 -15 -3 -8 -17 9 -10 11 -10 14 -1 9 6 -4 12 -2 12 4 0 6 -7 13 -15 16
-8 4 -15 14 -15 23 0 14 2 14 10 1 15 -24 11 2 -5 30 -16 28 -21 66 -6 41 5
-7 11 -9 14 -4 8 13 -3 53 -15 53 -5 0 -6 5 -3 10 3 6 5 9 3 9 -2 -1 -11 -3
-21 -6z m10 -45 c-16 -10 -21 -2 -13 19 6 15 9 15 16 3 6 -9 5 -17 -3 -22z
m-27 -21 c0 -4 7 -15 15 -24 9 -8 13 -18 10 -22 -7 -6 -23 18 -42 64 -12 27
-12 28 2 11 8 -11 15 -24 15 -29z m67 -162 c0 -11 -4 -12 -14 -4 -7 6 -13 13
-13 15 0 2 6 4 13 4 8 0 14 -7 14 -15z"/>
<path d="M941 1795 c14 -16 29 -39 33 -50 l6 -20 -18 20 c-17 19 -56 45 -68
45 -3 0 -3 -10 1 -22 6 -23 6 -23 -15 1 -11 13 -23 21 -27 17 -3 -3 1 -14 11
-25 15 -16 15 -19 1 -31 -12 -10 -15 -10 -15 4 0 9 -5 16 -11 16 -6 0 -9 -7
-5 -15 3 -8 1 -15 -4 -15 -6 0 -10 9 -10 20 0 15 -6 19 -25 18 -14 -1 -25 -6
-25 -10 0 -7 13 -11 30 -10 9 1 5 -96 -3 -105 -5 -4 -8 3 -7 17 2 14 -2 36 -8
50 -9 21 -10 17 -7 -26 3 -46 1 -51 -15 -47 -16 4 -16 8 -5 29 13 26 9 77 -6
68 -5 -3 -6 -17 -3 -31 6 -22 4 -25 -9 -20 -22 8 -30 -7 -22 -42 5 -23 10 -28
33 -25 59 6 97 16 104 27 6 9 8 9 8 0 0 -7 7 -10 15 -7 12 5 13 9 4 21 -18 20
3 39 28 24 10 -6 12 -11 6 -11 -7 0 -13 -6 -13 -14 0 -10 13 -16 38 -18 31 -3
37 -7 39 -28 1 -14 0 -18 -3 -7 -3 9 -12 17 -20 17 -8 0 -14 -8 -14 -17 0 -16
2 -16 11 -3 9 13 10 13 6 0 -5 -20 -33 -19 -30 0 3 17 -32 21 -54 7 -18 -11
-16 -27 2 -27 8 0 15 -4 15 -10 0 -5 7 -10 16 -10 14 0 15 2 3 18 -13 15 -12
16 3 3 10 -7 15 -17 13 -22 -3 -4 4 -13 15 -19 11 -6 20 -8 20 -6 0 10 95 -35
127 -60 18 -14 44 -45 59 -69 21 -36 25 -55 23 -102 -2 -32 -9 -64 -16 -72 -8
-7 -11 -22 -7 -33 4 -14 2 -18 -5 -14 -11 7 -15 -5 -12 -31 1 -7 -3 -13 -8
-13 -17 0 -23 20 -10 36 6 8 9 17 6 21 -4 3 -9 -1 -12 -9 -4 -10 -18 -14 -42
-13 -42 2 -86 -31 -62 -46 7 -4 17 -5 21 -3 4 3 5 -2 2 -11 -5 -12 -9 -13 -20
-4 -11 9 -14 7 -15 -12 0 -22 -1 -23 -8 -4 -5 11 -5 21 0 23 4 2 6 9 3 17 -3
7 -1 22 5 33 8 15 6 23 -9 37 -18 16 -20 16 -26 1 -3 -9 -1 -23 6 -31 11 -13
10 -14 -6 -8 -17 6 -18 5 -4 -13 14 -18 14 -18 -6 -1 -11 9 -23 15 -25 12 -3
-2 -5 6 -6 18 -2 21 -1 21 12 3 14 -18 14 -18 12 1 0 13 -9 20 -26 21 -14 1
-29 9 -34 17 -4 8 -13 15 -18 15 -6 0 -18 8 -27 17 -16 16 -16 16 1 10 17 -6
20 -1 18 38 -1 18 0 19 7 2 4 -10 12 -19 17 -20 6 -1 16 -12 23 -26 13 -24 13
-25 -7 -7 -11 10 -18 24 -15 30 3 6 -2 2 -10 -8 -15 -18 -14 -21 15 -38 20
-12 35 -15 46 -10 10 6 12 12 5 16 -6 4 -9 13 -5 21 4 11 1 13 -13 8 -11 -4
-15 -3 -11 4 7 12 -46 63 -65 63 -6 0 -8 -9 -5 -20 3 -11 1 -18 -4 -14 -5 3
-9 1 -9 -5 0 -5 6 -11 13 -14 6 -2 -4 -4 -24 -4 -31 1 -34 3 -23 15 16 16 10
32 -13 32 -13 0 -13 -3 -3 -15 9 -10 9 -15 1 -15 -21 0 -11 -20 14 -30 30 -11
34 -25 5 -17 -15 4 -20 0 -20 -14 0 -10 -5 -19 -10 -19 -6 0 -9 5 -8 12 2 7
-3 13 -9 14 -27 3 -28 5 -13 15 13 10 13 10 -1 6 -18 -6 -45 46 -33 64 5 9 10
5 15 -9 8 -21 39 -31 39 -13 0 5 3 17 7 27 5 14 3 16 -11 11 -11 -5 -15 -3
-10 5 5 8 2 9 -10 5 -10 -4 -15 -3 -11 3 7 11 -29 32 -39 23 -3 -3 -6 -1 -6 5
0 7 -10 12 -22 12 -21 0 -21 -1 -3 -13 17 -13 16 -14 -6 -12 -15 1 -24 8 -23
17 2 18 -57 19 -63 1 -6 -16 18 -28 27 -13 5 9 9 8 13 -4 3 -8 15 -20 26 -26
17 -9 20 -8 15 5 -5 11 -2 14 10 9 10 -4 15 -12 12 -19 -3 -8 2 -16 10 -19 9
-3 12 -10 9 -16 -3 -5 -1 -10 5 -10 6 0 8 -5 4 -11 -3 -6 10 -27 29 -47 27
-28 34 -41 27 -52 -18 -29 -11 -57 15 -64 14 -4 23 -11 20 -16 -3 -5 -13 -6
-23 -3 -15 6 -14 3 2 -16 19 -21 19 -21 1 -15 -14 6 -16 4 -10 -7 8 -12 6 -12
-8 0 -20 16 -49 71 -37 71 4 0 13 -13 19 -30 11 -32 23 -41 17 -12 -12 54 -18
62 -37 51 -11 -5 -24 -7 -31 -3 -6 4 -9 1 -6 -7 3 -8 10 -13 16 -12 13 3 26
-33 17 -48 -4 -6 3 -20 14 -31 24 -21 24 -39 0 -47 -12 -3 -12 -2 -1 12 11 13
10 17 -6 26 -11 6 -23 7 -27 3 -8 -7 -3 20 9 49 5 11 1 18 -13 22 -17 4 -21 0
-22 -21 l-1 -27 -7 25 c-4 14 -3 28 2 31 5 4 4 10 -3 14 -19 12 -35 -11 -21
-29 7 -8 11 -23 8 -33 -3 -14 -6 -12 -11 9 -7 22 -13 27 -31 24 -16 -3 -22 0
-19 8 3 7 -2 19 -11 26 -18 15 -19 5 -4 -38 7 -22 7 -36 0 -51 -7 -13 -8 -22
-1 -26 5 -3 10 2 10 11 0 25 8 13 14 -21 l5 -29 -25 26 c-23 22 -24 28 -14 48
9 17 9 24 0 30 -6 4 -11 10 -11 14 3 22 0 48 -5 43 -3 -3 -17 6 -30 21 -19 22
-23 24 -24 10 0 -10 5 -18 11 -18 5 0 8 -4 4 -9 -3 -5 -1 -12 5 -16 5 -3 15
-15 20 -25 8 -16 8 -18 -5 -14 -10 4 -15 0 -15 -11 0 -12 6 -16 18 -13 15 4
17 0 14 -22 -4 -31 14 -74 28 -65 5 3 10 -4 12 -16 2 -12 13 -28 26 -37 21
-14 22 -13 20 8 -2 15 3 24 15 25 14 3 16 0 7 -10 -8 -9 -6 -14 6 -19 24 -9
41 -7 24 4 -8 5 -12 12 -8 15 3 4 18 -1 32 -10 29 -19 32 -15 14 15 -17 27 -5
35 24 16 24 -16 24 -16 20 13 -3 20 3 40 17 60 12 16 21 34 21 40 0 6 5 11 11
11 5 0 7 5 4 10 -3 6 2 10 12 10 10 0 25 5 33 10 13 8 13 13 2 31 -8 13 -9 18
-2 14 6 -4 20 1 30 10 13 11 20 13 25 5 4 -6 4 -14 1 -17 -3 -4 -6 -1 -6 6 0
7 -5 9 -11 6 -6 -4 -8 -13 -5 -20 3 -8 0 -16 -7 -19 -7 -3 2 -3 19 0 47 8 84
-26 84 -77 0 -21 -4 -39 -9 -39 -5 0 -12 -11 -15 -24 -4 -18 -11 -23 -26 -19
-15 4 -20 0 -20 -13 0 -14 -3 -15 -12 -6 -16 16 -28 15 -28 -3 0 -8 5 -14 12
-12 6 1 13 -7 15 -18 3 -18 1 -17 -20 6 -19 21 -27 24 -50 16 -22 -7 -26 -13
-21 -29 5 -17 3 -19 -14 -14 -20 7 -62 -25 -62 -46 0 -5 -4 -6 -10 -3 -14 9
-12 -8 3 -25 6 -8 3 -7 -8 2 -19 16 -21 16 -32 -1 -9 -14 -9 -22 0 -31 9 -10
9 -11 0 -6 -6 3 -15 1 -19 -5 -4 -7 -3 -9 3 -6 6 4 14 0 17 -9 10 -25 2 -27
-18 -5 -12 14 -16 27 -10 43 9 30 8 33 -16 34 -21 1 -27 -11 -11 -21 6 -3 9
-14 8 -25 -1 -10 -5 -17 -9 -14 -4 3 -5 12 -2 22 5 14 4 14 -4 3 -7 -10 -7
-23 2 -40 7 -14 16 -33 20 -41 3 -8 4 -3 2 12 -1 15 1 25 5 22 15 -9 10 -44
-8 -51 -14 -5 -13 -7 5 -14 13 -5 20 -14 16 -23 -3 -8 -1 -17 4 -20 6 -3 12 1
16 9 3 8 10 15 16 15 6 0 4 -10 -5 -23 -8 -13 -12 -27 -8 -32 5 -4 3 -5 -3 -2
-10 6 -25 -15 -37 -53 -4 -12 -6 -12 -6 2 -1 9 -9 19 -18 21 -13 3 -12 5 5 6
15 1 21 5 16 13 -4 7 -3 8 4 4 7 -4 12 -2 12 4 0 6 -7 13 -16 17 -8 3 -13 12
-10 20 4 9 -7 27 -25 44 -18 16 -29 32 -27 35 3 3 13 -3 22 -12 21 -20 27 -15
19 15 -3 13 -11 20 -19 17 -7 -3 -20 6 -28 20 -10 15 -12 24 -5 24 6 0 14 -10
17 -22 6 -23 6 -23 12 2 8 27 -25 75 -43 63 -5 -3 -13 1 -18 8 -7 11 -9 9 -9
-7 0 -12 8 -32 18 -45 10 -13 18 -37 17 -54 -1 -16 2 -34 5 -40 11 -16 22 -50
14 -42 -4 4 -13 2 -21 -5 -11 -9 -13 -8 -11 3 2 8 -3 13 -10 11 -9 -2 -9 5 3
27 19 37 19 41 -1 41 -18 0 -70 -55 -77 -81 -3 -11 0 -22 5 -26 7 -3 8 -1 4 5
-4 8 -2 10 8 6 8 -3 17 -13 21 -22 5 -13 4 -14 -6 -5 -10 10 -15 9 -26 -5 -8
-9 -12 -12 -9 -5 4 6 2 14 -4 18 -6 4 -10 -4 -10 -18 0 -14 7 -28 16 -31 22
-9 24 -8 24 9 0 8 6 15 14 15 8 0 17 6 20 13 4 6 4 -2 2 -19 -4 -26 -1 -33 19
-42 13 -6 25 -8 28 -4 2 4 2 1 0 -7 -2 -8 2 -11 12 -7 9 3 13 2 10 -3 -3 -5
-1 -12 4 -15 5 -4 12 -2 16 4 7 11 25 4 25 -10 0 -5 -6 -7 -13 -5 -8 4 -12 -5
-12 -25 -1 -20 4 -30 15 -31 9 0 10 -3 3 -5 -8 -4 -8 -14 3 -40 8 -19 10 -34
4 -34 -5 0 -12 11 -16 24 -4 16 -12 24 -25 23 -26 -2 -24 -9 11 -37 16 -14 29
-31 30 -39 0 -7 -9 -2 -21 13 -42 54 -51 24 -17 -57 25 -61 43 -85 33 -44 -7
26 -6 27 20 23 19 -4 25 -1 22 8 -3 6 1 23 9 37 13 24 14 24 8 -7 -6 -34 2
-52 65 -137 19 -26 40 -47 46 -47 6 0 7 3 0 8 -15 11 -66 112 -57 112 5 0 9
14 9 30 0 17 -3 30 -7 30 -11 0 -9 44 3 59 7 9 8 12 1 8 -6 -4 -19 8 -30 28
-10 18 -23 31 -28 27 -6 -3 -5 1 2 10 9 12 10 18 2 23 -6 4 -9 13 -6 21 3 8 0
14 -5 14 -7 0 -9 -11 -7 -25 3 -13 2 -22 -3 -20 -4 3 -10 1 -13 -4 -4 -5 6
-18 20 -28 26 -19 26 -20 11 -49 -9 -16 -16 -22 -16 -14 -1 8 3 21 8 29 6 10
1 21 -17 36 -23 20 -25 26 -15 48 10 21 9 28 -8 43 -20 18 -25 34 -11 34 5 0
15 -12 22 -28 14 -29 28 -14 14 16 -14 33 -13 48 2 28 8 -11 14 -27 14 -37 0
-9 7 -20 15 -23 9 -3 15 -1 14 7 -1 6 -1 28 0 47 1 25 4 31 10 21 5 -8 7 -20
4 -27 -2 -6 1 -15 8 -20 7 -4 10 -3 6 4 -9 13 2 42 15 42 7 0 6 -5 -1 -13 -6
-8 -9 -23 -6 -35 4 -25 -4 -28 -25 -10 -12 11 -12 10 -1 -4 16 -21 51 -24 51
-4 0 7 7 19 16 27 14 11 14 14 1 23 -14 11 -17 17 -17 37 0 8 -4 8 -14 0 -12
-10 -13 -8 -9 8 7 26 21 27 30 4 15 -42 24 -43 61 -8 21 19 41 35 45 35 5 0 5
5 2 10 -3 6 0 10 8 10 10 0 13 7 10 20 -3 11 -9 17 -14 14 -5 -3 -9 0 -9 5 0
18 19 12 30 -8 10 -20 11 -20 44 2 18 12 31 26 28 31 -3 5 0 6 7 2 13 -8 44
19 47 41 4 22 11 26 18 8 4 -11 2 -14 -6 -9 -7 4 -8 3 -4 -4 8 -14 46 -16 46
-3 0 5 -7 11 -15 15 -8 3 -15 13 -15 22 0 13 6 11 27 -10 14 -14 33 -24 42
-22 9 3 37 8 63 12 45 6 48 8 43 33 l-5 26 10 -26 c15 -36 71 -37 88 -1 10 21
9 29 -4 44 -9 9 -21 15 -25 12 -5 -3 -6 2 -3 10 8 21 12 20 35 -6 18 -22 19
-22 16 -3 -1 11 -6 25 -10 32 -4 6 -3 14 2 17 18 11 23 -66 7 -112 -7 -21 -5
-22 20 -18 15 3 31 10 34 17 6 8 9 8 14 0 4 -6 14 -11 22 -11 12 0 12 4 4 20
-6 11 -14 18 -19 16 -4 -3 -7 5 -7 17 1 17 -4 21 -21 19 -13 -2 -23 2 -23 8 0
6 5 8 10 5 6 -3 10 -1 10 6 0 9 3 9 14 0 11 -9 15 -9 20 1 4 9 5 9 5 -2 -2
-30 1 -41 11 -35 6 3 7 -1 4 -9 -3 -9 -1 -16 4 -16 6 0 14 9 17 21 5 15 10 18
18 10 7 -7 5 -16 -8 -31 -25 -27 -12 -25 34 6 53 34 55 46 15 73 -19 13 -34
31 -34 39 0 12 -3 13 -12 4 -8 -8 -8 -15 2 -27 10 -12 10 -15 -1 -15 -19 0
-49 20 -31 20 7 0 10 5 6 11 -4 8 -9 8 -17 0 -15 -15 -30 -14 -21 1 4 7 3 8
-4 4 -17 -10 -15 -24 6 -29 9 -3 2 -5 -16 -4 -18 1 -40 9 -49 19 -17 19 -39
25 -28 9 3 -5 1 -12 -5 -16 -5 -3 -10 0 -11 7 0 7 -4 3 -9 -9 -11 -27 -23 -29
-41 -7 -19 23 -20 44 -2 44 10 0 12 -6 8 -21 -5 -14 -3 -19 3 -15 6 3 13 0 15
-6 3 -7 5 -1 4 15 -1 26 -27 45 -46 33 -5 -3 -14 1 -21 9 -7 8 -18 15 -25 15
-7 0 -15 11 -17 24 -4 19 -1 22 14 18 10 -2 18 -9 18 -14 0 -5 -4 -6 -10 -3
-5 3 -10 2 -10 -3 0 -8 22 -22 35 -22 2 0 1 10 -3 23 -5 20 -4 21 13 7 17 -14
18 -13 12 3 -4 10 -7 26 -8 35 0 14 -2 13 -10 -3 -8 -17 -8 -15 -4 8 3 15 2
27 -3 27 -4 0 -8 10 -9 22 -1 11 -6 24 -10 27 -4 3 -17 17 -28 30 l-20 24 23
-12 c12 -6 22 -8 22 -2 0 5 7 12 16 15 13 5 14 4 6 -7 -13 -15 -11 -31 16
-106 11 -29 21 -49 23 -43 2 6 10 3 19 -6 13 -14 12 -15 -3 -9 -9 3 -17 2 -17
-4 0 -12 80 -10 96 3 7 5 16 8 20 7 34 -6 50 24 28 51 -6 8 -14 26 -17 40 -6
23 -5 22 5 -2 7 -16 16 -28 21 -28 4 0 5 6 1 13 -4 7 -3 8 2 4 5 -5 9 -23 9
-40 0 -26 3 -31 20 -29 11 2 22 8 23 13 2 5 9 6 14 3 7 -5 8 -2 3 6 -6 10 -4
12 8 7 11 -4 14 -2 10 9 -4 10 0 12 11 8 20 -8 20 -5 0 35 -8 17 -20 29 -25
26 -5 -4 -6 1 -3 9 8 21 19 13 34 -24 14 -34 30 -40 30 -10 0 11 -4 20 -10 20
-5 0 -10 5 -10 11 0 7 -8 18 -17 26 -16 13 -16 13 3 4 12 -6 24 -7 28 -4 3 3
7 1 7 -5 1 -7 2 -17 3 -24 0 -6 7 -13 15 -16 10 -3 12 0 6 14 -4 11 -8 24 -8
31 0 15 -25 25 -39 16 -6 -3 -8 -1 -5 4 4 6 0 16 -8 23 -20 17 3 42 28 29 21
-12 24 13 3 30 -11 10 -24 2 -65 -39 -29 -28 -47 -49 -41 -45 6 3 7 0 4 -9 -3
-9 -1 -16 4 -16 6 0 14 9 17 21 5 16 10 18 18 10 9 -9 9 -14 -1 -20 -8 -5 -13
-11 -12 -15 5 -23 -10 -28 -25 -8 -9 12 -21 19 -27 16 -7 -4 -8 -2 -4 4 4 7 2
12 -3 12 -6 0 -11 -4 -11 -10 0 -5 -8 -6 -17 -3 -16 6 -16 5 -4 -10 8 -10 9
-17 3 -17 -6 0 -14 5 -18 11 -5 8 -13 4 -26 -12 -19 -23 -20 -23 -15 -2 4 16
0 21 -13 20 -19 -1 -25 -43 -10 -62 5 -6 8 -25 8 -43 -1 -18 -4 -28 -8 -21 -4
6 -6 19 -3 29 3 9 -3 24 -12 33 -11 12 -14 26 -10 51 4 20 2 36 -4 40 -6 4 -9
1 -5 -7 3 -8 -1 -18 -8 -23 -7 -4 -10 -4 -6 1 4 4 3 17 -3 28 -8 14 -8 18 0
13 6 -4 11 -2 11 4 0 7 6 5 15 -4 16 -16 49 -11 39 6 -4 6 -10 5 -15 -3 -5 -8
-9 -9 -9 -4 0 6 5 17 10 25 8 13 11 12 24 -5 15 -20 15 -19 43 10 15 16 24 26
19 22 -5 -4 -16 -1 -24 6 -13 10 -15 9 -10 -9 5 -19 3 -20 -18 -10 -13 6 -25
20 -28 31 -5 19 -4 19 9 1 15 -20 40 -12 31 10 -3 8 1 14 9 14 8 0 14 -5 13
-11 -2 -6 3 -14 10 -16 14 -5 16 18 3 33 -5 5 2 28 16 54 19 34 24 38 19 17
-5 -21 -4 -27 5 -21 8 4 9 3 5 -5 -4 -6 -11 -9 -16 -6 -5 3 -14 -3 -20 -14 -7
-13 -7 -22 0 -26 5 -3 10 -16 10 -27 0 -21 0 -21 18 -2 11 11 18 34 18 59 1
22 6 50 12 62 17 32 15 49 -8 50 -11 1 -19 -1 -19 -5 5 -29 -2 -34 -21 -17
-22 20 -24 16 -20 -37 1 -16 -3 -28 -8 -28 -6 0 -8 10 -4 22 3 14 2 19 -6 14
-7 -4 -12 -1 -13 6 0 7 -2 28 -5 46 -2 17 1 32 6 32 6 0 10 12 10 26 0 14 4
23 9 20 12 -8 -4 71 -17 87 -8 9 -8 17 -1 24 6 6 3 18 -9 34 -11 13 -17 30
-14 38 2 8 0 11 -6 8 -5 -4 -12 -20 -14 -37 -3 -21 -1 -27 7 -20 8 7 12 5 12
-5 0 -8 -6 -15 -13 -15 -8 0 -22 -18 -33 -40 -10 -22 -15 -40 -10 -40 6 0 7
-5 4 -10 -4 -6 -10 -8 -14 -6 -13 8 -53 -25 -47 -39 2 -7 -2 -16 -10 -19 -8
-3 -14 1 -14 8 0 8 -8 17 -17 21 -17 6 -17 7 -1 16 17 9 17 12 2 34 -9 14 -25
25 -35 25 -11 0 -22 7 -25 15 -4 10 -13 13 -25 10 -14 -5 -17 -2 -13 8 2 7 -3
20 -12 28 -16 12 -17 12 -11 -4 4 -10 7 -25 7 -32 0 -7 8 -16 18 -18 16 -4 16
-5 -1 -6 -14 -1 -17 -6 -12 -21 5 -15 2 -20 -13 -20 -11 0 -23 6 -25 13 -3 6
-6 2 -6 -11 -1 -15 3 -21 11 -16 7 4 8 3 4 -5 -11 -17 -26 -3 -26 25 0 26 9
31 28 12 9 -9 12 -8 12 5 0 24 -32 39 -45 20 -9 -12 -11 -11 -12 7 -1 13 2 18
9 14 7 -5 9 -1 5 9 -8 20 9 32 20 15 4 -7 8 -16 8 -20 0 -18 15 -18 15 0 0 11
-5 24 -11 27 -6 4 -8 13 -5 21 9 23 -5 78 -15 62 -6 -9 -8 -4 -7 15 1 15 6 27
10 27 4 0 8 7 8 16 0 8 4 12 10 9 6 -4 7 1 3 11 -5 13 -3 15 8 9 12 -7 12 -6
0 6 -11 11 -14 11 -18 1 -4 -10 -8 -10 -21 0 -13 11 -14 10 -4 -9 19 -34 14
-39 -12 -13 -14 12 -31 20 -39 17 -8 -3 -21 0 -28 6 -8 7 -2 -1 12 -18z m49
-25 c0 -11 -2 -20 -4 -20 -2 0 -6 9 -9 20 -3 11 -1 20 4 20 5 0 9 -9 9 -20z
m-50 -32 c0 -6 -6 -5 -15 2 -8 7 -15 14 -15 16 0 2 7 1 15 -2 8 -4 15 -11 15
-16z m-43 -4 c-3 -4 0 -13 8 -21 8 -8 15 -20 15 -26 0 -7 -5 -4 -11 6 -5 9
-16 17 -24 17 -9 0 -12 6 -9 15 4 8 11 15 17 15 6 0 8 -3 4 -6z m73 -32 c0
-15 -2 -15 -10 -2 -13 20 -13 33 0 25 6 -3 10 -14 10 -23z m-20 -12 c16 -23
18 -28 5 -24 -19 8 -46 54 -31 54 3 0 14 -13 26 -30z m-95 10 c3 -5 2 -10 -4
-10 -5 0 -13 5 -16 10 -3 6 -2 10 4 10 5 0 13 -4 16 -10z m1 -38 c-4 -3 -14 2
-24 12 -16 18 -16 18 6 6 13 -6 21 -14 18 -18z m144 16 c0 -9 4 -8 10 2 8 12
10 12 10 -5 0 -25 -36 -50 -46 -33 -4 6 -3 8 4 4 6 -3 13 -2 16 3 4 5 2 12 -4
16 -13 8 -13 25 0 25 6 0 10 -6 10 -12z m324 -83 c3 -8 1 -15 -4 -15 -6 0 -10
7 -10 15 0 8 2 15 4 15 2 0 6 -7 10 -15z m31 -33 c5 -32 -23 -118 -32 -95 -2
7 0 20 5 30 8 14 5 24 -10 43 l-21 25 8 -25 c8 -28 3 -26 -13 6 -10 18 -8 21
9 20 11 0 27 -12 35 -26 14 -24 14 -23 8 20 -6 50 2 52 11 2z m-371 -8 c9 -24
7 -28 -9 -14 -12 10 -15 10 -15 0 0 -8 -2 -11 -5 -8 -7 7 5 38 15 38 4 0 11
-7 14 -16z m106 6 c0 -5 -2 -10 -4 -10 -3 0 -8 5 -11 10 -3 6 -1 10 4 10 6 0
11 -4 11 -10z m40 -6 c0 -2 -7 -4 -15 -4 -8 0 -15 4 -15 10 0 5 7 7 15 4 8 -4
15 -8 15 -10z m-10 -34 c11 20 30 19 30 -1 0 -6 -5 -7 -12 -3 -7 5 -9 2 -6 -8
4 -8 3 -21 -2 -28 -6 -10 -12 -8 -26 8 -10 12 -22 18 -27 15 -6 -3 -7 -1 -3 5
4 7 2 12 -4 12 -6 0 -8 5 -4 12 5 8 13 4 25 -11 l18 -22 11 21z m145 0 c3 -5
1 -10 -4 -10 -6 0 -11 5 -11 10 0 6 2 10 4 10 3 0 8 -4 11 -10z m37 -19 c7 10
9 11 6 1 -6 -21 -23 -19 -24 3 -1 18 -1 18 3 1 4 -16 7 -17 15 -5z m-122 -44
c0 -4 5 -5 12 -1 6 4 8 3 4 -4 -3 -6 -2 -13 3 -16 5 -4 11 4 13 16 3 20 5 19
16 -11 9 -26 9 -31 -1 -24 -6 5 -22 8 -34 7 -12 0 -21 2 -19 5 7 12 -14 52
-24 46 -6 -4 -7 1 -3 11 6 16 7 15 20 -2 7 -10 13 -22 13 -27z m80 7 c0 -20
-7 -17 -20 6 -9 16 -8 18 5 14 8 -4 15 -12 15 -20z m45 -36 c8 -21 11 -38 6
-38 -5 0 -12 11 -15 25 -4 14 -11 25 -16 25 -6 0 -10 10 -10 22 0 29 14 14 35
-34z m-155 22 c0 -5 -5 -10 -11 -10 -5 0 -7 5 -4 10 3 6 8 10 11 10 2 0 4 -4
4 -10z m180 -20 c0 -11 -2 -20 -4 -20 -2 0 -6 9 -9 20 -3 11 -1 20 4 20 5 0 9
-9 9 -20z m-88 -40 c-18 -17 -22 -18 -22 -5 0 8 7 15 15 15 8 0 15 5 15 12 0
6 3 8 7 5 3 -4 -3 -16 -15 -27z m-32 -11 c0 -6 -4 -7 -10 -4 -5 3 -10 11 -10
16 0 6 5 7 10 4 6 -3 10 -11 10 -16z m50 -11 c0 10 3 10 14 0 7 -7 12 -18 10
-23 -3 -6 5 -11 16 -12 24 -2 25 5 3 29 -15 17 -15 18 8 18 15 0 20 -3 12 -8
-9 -6 -8 -12 6 -24 11 -9 22 -14 25 -11 3 4 6 -2 6 -12 0 -14 -3 -15 -14 -6
-11 9 -20 10 -35 1 -12 -6 -21 -7 -21 -3 0 4 -5 1 -11 -7 -9 -13 -10 -13 -8 0
3 32 -1 50 -12 48 -6 -2 -14 4 -16 12 -4 13 -3 13 6 0 8 -11 11 -11 11 -2z
m-59 -16 c-7 -2 -18 1 -23 6 -8 8 -4 9 13 5 13 -4 18 -8 10 -11z m-504 2 c-3
-3 -12 -4 -19 -1 -8 3 -5 6 6 6 11 1 17 -2 13 -5z m533 -24 c-10 -7 -11 -10
-2 -10 6 0 12 -7 12 -15 0 -8 7 -15 16 -15 9 0 14 -6 11 -13 -6 -17 20 -41 26
-24 4 9 6 9 6 0 2 -20 -21 -27 -34 -9 -7 9 -19 14 -27 11 -18 -7 -52 29 -45
47 3 8 6 6 6 -5 1 -10 6 -15 11 -12 6 3 13 -1 16 -9 3 -9 10 -13 16 -10 12 7
-30 54 -49 54 -7 0 -13 4 -13 8 0 5 10 8 23 8 15 -1 21 4 19 14 -3 12 -1 13
10 2 11 -11 10 -14 -2 -22z m10 -100 c0 6 5 8 11 5 6 -5 4 -12 -8 -20 -10 -8
-20 -9 -21 -4 -2 5 -9 6 -14 3 -7 -4 -8 -2 -4 4 4 7 1 12 -8 12 -9 0 -16 5
-16 10 0 6 13 4 30 -5 19 -10 30 -11 30 -5z m-445 -19 c-3 -5 -1 -12 5 -16 5
-3 10 -11 10 -16 0 -6 -4 -7 -10 -4 -7 4 -7 -3 0 -19 8 -22 7 -26 -10 -26 -23
0 -43 32 -34 55 4 9 13 14 20 11 8 -3 13 -2 13 2 -2 12 1 22 7 22 3 0 3 -4 -1
-9z m53 -22 c-3 -8 -7 -3 -11 10 -4 17 -3 21 5 13 5 -5 8 -16 6 -23z m-20 -60
c-3 -8 -7 -3 -11 10 -4 17 -3 21 5 13 5 -5 8 -16 6 -23z m351 -9 c11 -22 15
-37 9 -34 -5 3 -13 17 -19 31 -5 13 -13 21 -19 18 -6 -3 -7 1 -4 9 9 23 11 21
33 -24z m-82 -5 c14 -3 22 -9 19 -12 -9 -10 -46 -11 -40 -2 2 4 0 10 -6 14 -5
3 -9 14 -9 23 1 16 2 16 6 0 2 -9 16 -19 30 -23z m161 -1 c-4 -3 -12 5 -18 18
-12 22 -12 22 6 6 10 -10 15 -20 12 -24z m162 26 c0 -5 -4 -10 -10 -10 -5 0
-10 5 -10 10 0 6 5 10 10 10 6 0 10 -4 10 -10z m-42 -70 c-1 -36 -22 -51 -32
-23 -3 7 -1 13 5 13 6 0 8 4 5 9 -4 5 -1 11 5 13 7 2 7 12 0 33 -10 28 -10 28
4 11 8 -11 14 -36 13 -56z m-294 7 c19 -4 19 -4 -2 -6 -16 -1 -25 7 -32 25 -6
14 -10 28 -9 32 1 4 6 -5 12 -20 6 -15 20 -29 31 -31z m67 26 c13 -16 12 -17
-3 -4 -10 7 -18 15 -18 17 0 8 8 3 21 -13z m305 1 c-2 -6 2 -11 10 -11 7 0 11
4 8 9 -3 4 -1 8 5 8 17 0 22 -18 6 -24 -8 -3 -15 -12 -15 -20 0 -8 -5 -18 -11
-22 -7 -4 -9 0 -5 14 5 14 -1 26 -20 41 l-27 21 27 -2 c15 -1 25 -7 22 -14z
m-126 -14 c0 -11 -2 -20 -4 -20 -2 0 -6 9 -9 20 -3 11 -1 20 4 20 5 0 9 -9 9
-20z m-292 -35 c0 -25 -4 -47 -9 -51 -5 -3 -9 -15 -9 -27 0 -18 -2 -19 -10 -7
-6 10 -4 22 6 39 11 16 13 26 5 30 -8 5 -7 15 2 34 6 15 12 27 13 27 0 0 1
-20 2 -45z m87 6 c-19 -38 -13 -116 12 -143 17 -20 17 -20 -1 -17 -11 2 -20
13 -22 23 -1 10 -8 22 -15 26 -6 5 -9 14 -6 22 2 8 -4 25 -14 39 -11 13 -17
17 -13 8 3 -10 1 -20 -5 -24 -6 -3 -11 -16 -11 -28 0 -17 -2 -19 -9 -8 -6 9
-4 22 5 36 8 12 11 25 8 28 -9 8 15 37 30 37 8 0 8 -2 -1 -8 -8 -5 -8 -13 1
-30 11 -21 12 -20 25 23 7 25 17 45 22 45 5 0 3 -13 -6 -29z m55 15 c0 -3 -4
-8 -10 -11 -5 -3 -10 -1 -10 4 0 6 5 11 10 11 6 0 10 -2 10 -4z m94 -12 c5
-14 4 -15 -9 -4 -17 14 -19 20 -6 20 5 0 12 -7 15 -16z m-627 -53 c20 -21 27
-21 25 0 -1 3 6 6 14 6 10 0 11 -4 4 -11 -5 -5 -10 -18 -10 -27 0 -10 -7 -16
-15 -15 -9 1 -14 5 -13 8 6 12 -25 36 -39 31 -8 -3 -19 0 -24 8 -14 23 -10 34
5 13 8 -10 18 -16 22 -12 4 5 -1 18 -12 30 -19 22 -19 22 1 8 11 -8 30 -26 42
-39z m497 7 c-1 -24 3 -51 8 -60 6 -13 5 -16 -6 -12 -16 6 -25 64 -14 93 11
30 13 26 12 -21z m66 21 c0 -6 -4 -7 -10 -4 -5 3 -10 11 -10 16 0 6 5 7 10 4
6 -3 10 -11 10 -16z m-210 -41 c0 -6 -7 -8 -15 -4 -8 3 -15 0 -15 -6 0 -6 -2
-9 -5 -6 -3 3 -3 12 1 21 6 16 34 12 34 -5z m12 -50 c9 2 20 -2 24 -9 5 -8 3
-10 -7 -4 -12 7 -12 5 -1 -6 11 -12 14 -12 23 1 9 13 10 12 5 -2 -3 -12 0 -18
9 -18 8 0 15 -2 15 -4 0 -2 3 -13 6 -23 5 -16 4 -16 -10 1 -21 26 -21 7 0 -22
8 -12 20 -20 25 -17 5 3 6 -2 3 -12 -4 -13 0 -11 14 6 14 18 21 21 27 11 5 -8
2 -17 -7 -24 -8 -6 -13 -17 -11 -23 9 -27 -16 -11 -37 22 -12 19 -26 33 -31
29 -5 -3 -9 8 -9 25 0 22 -4 29 -14 25 -8 -3 -17 2 -20 14 -6 18 -36 27 -36
10 0 -4 6 -8 14 -8 7 0 16 -9 19 -19 3 -14 1 -18 -9 -14 -8 3 -11 10 -7 16 4
6 0 8 -9 5 -10 -4 -14 1 -14 22 0 18 4 26 10 22 6 -3 18 -5 28 -4z m-422 -8
c0 -5 -2 -10 -4 -10 -3 0 -8 5 -11 10 -3 6 -1 10 4 10 6 0 11 -4 11 -10z m330
-10 c-14 -9 -11 -12 6 -9 4 0 11 -5 15 -13 6 -9 9 -6 9 11 0 13 3 22 6 18 4
-3 3 -18 0 -32 -6 -25 -7 -25 -31 -8 -27 20 -32 39 -12 46 18 7 23 -3 7 -13z
m297 13 c-4 -3 -1 -13 6 -22 11 -14 10 -14 -5 -2 -16 12 -16 31 -1 31 4 0 3
-3 0 -7z m-394 -16 c3 -8 2 -20 -3 -26 -5 -9 -7 -4 -7 13 0 29 2 32 10 13z
m274 -3 c-3 -3 -12 -4 -19 -1 -8 3 -5 6 6 6 11 1 17 -2 13 -5z m99 -13 c-3 -4
6 -13 19 -19 14 -7 25 -16 25 -21 0 -6 8 -8 18 -5 12 4 13 3 5 -3 -10 -7 -10
-13 2 -29 12 -15 14 -16 15 -3 0 26 25 18 27 -9 1 -18 -1 -21 -8 -11 -7 12 -9
12 -9 0 0 -10 -3 -11 -13 -2 -8 6 -17 9 -20 6 -4 -3 -5 -2 -2 1 7 11 -15 45
-26 39 -5 -4 -9 0 -9 7 0 7 -9 19 -20 26 -18 11 -20 32 -4 32 3 0 3 -4 0 -9z
m-305 -30 c6 -59 6 -72 -2 -60 -16 27 -19 1 -4 -47 18 -60 18 -59 0 -40 -8 8
-15 26 -15 41 0 17 -4 24 -11 19 -15 -9 -1 36 18 58 14 16 13 18 -11 29 -14 7
-26 16 -26 20 0 9 50 -11 51 -20z m-81 -43 c0 -5 -5 -8 -11 -8 -5 0 -7 -5 -3
-12 5 -7 3 -8 -6 -3 -10 6 -12 4 -7 -8 3 -10 3 -17 -1 -17 -12 0 -52 57 -52
72 0 8 5 6 11 -5 6 -9 14 -15 20 -12 5 3 6 -2 3 -12 -5 -16 -4 -16 10 2 14 17
14 20 1 28 -8 4 -15 16 -15 25 1 13 7 9 25 -13 14 -16 25 -33 25 -37z m445 52
c3 -5 1 -10 -4 -10 -6 0 -11 5 -11 10 0 6 2 10 4 10 3 0 8 -4 11 -10z m209
-21 c-8 -13 -24 -1 -24 18 0 13 3 13 15 3 8 -7 12 -16 9 -21z m66 -13 c-1 -6
-6 -1 -13 12 -7 12 -17 19 -22 15 -4 -4 -5 -2 0 6 7 12 10 11 22 -4 7 -11 13
-24 13 -29z m-544 17 c18 -24 17 -38 -1 -23 -12 10 -15 10 -15 -1 0 -11 -2
-11 -10 1 -9 13 -10 13 -10 0 0 -9 5 -21 12 -28 7 -7 8 -12 2 -12 -13 0 -16
-47 -4 -55 6 -3 10 -16 9 -28 0 -21 -1 -21 -12 3 -6 14 -15 28 -20 31 -5 3 -7
17 -5 30 2 17 -1 23 -12 21 -8 -2 -12 0 -8 4 4 4 3 13 -3 21 -6 7 -8 13 -4 13
4 0 14 -8 22 -17 10 -14 13 -15 11 -3 -2 14 22 60 31 60 2 0 10 -8 17 -17z
m139 7 c3 -5 -1 -10 -9 -10 -9 0 -16 5 -16 10 0 6 4 10 9 10 6 0 13 -4 16 -10z
m-276 -14 c9 -11 9 -16 -1 -22 -7 -4 -10 -4 -6 1 4 4 3 14 -3 22 -6 7 -9 13
-6 13 2 0 10 -6 16 -14z m355 -1 c3 3 2 -1 -4 -7 -15 -18 -13 -43 3 -30 9 8
12 4 13 -14 1 -15 -4 -24 -12 -24 -8 0 -14 7 -14 15 0 8 -5 15 -10 15 -7 0 -7
6 -1 18 7 13 6 23 -2 32 -10 12 -9 12 4 2 9 -6 19 -10 23 -7z m-166 -47 c8
-10 10 -18 5 -18 -6 0 -14 8 -18 18 -6 16 -7 16 -16 0 -7 -12 -6 -25 1 -39 7
-11 9 -24 5 -27 -3 -3 -8 4 -12 16 -3 12 -9 19 -14 16 -14 -8 -11 12 9 50 12
24 18 29 21 18 1 -10 10 -25 19 -34z m339 18 c-3 -7 0 -19 6 -25 8 -8 8 -11 0
-11 -6 0 -13 6 -16 13 -4 13 2 37 10 37 3 0 3 -6 0 -14z m-532 -14 c-3 -3 -11
0 -18 7 -9 10 -8 11 6 5 10 -3 15 -9 12 -12z m-139 -19 c-7 -7 -26 7 -26 19 0
6 6 6 15 -2 9 -7 13 -15 11 -17z m122 -8 c-3 -3 -9 2 -12 12 -6 14 -5 15 5 6
7 -7 10 -15 7 -18z m346 -14 c-4 -3 -9 0 -11 7 -3 6 -9 10 -14 6 -11 -6 -12 9
-2 20 4 4 13 -1 20 -10 7 -10 10 -20 7 -23z m-428 -1 c8 0 14 -4 14 -10 0 -5
-4 -10 -9 -10 -5 0 -8 -6 -7 -14 2 -23 -18 -21 -30 3 l-11 22 -5 -23 c-5 -29
0 -48 13 -48 6 0 7 6 3 13 -6 9 -5 9 8 0 8 -7 18 -10 22 -6 4 4 4 -1 0 -11 -5
-14 -9 -15 -16 -4 -7 9 -8 8 -5 -7 2 -11 9 -19 15 -17 7 1 12 -2 12 -7 0 -5
-11 -8 -24 -8 -17 0 -23 4 -19 13 3 8 0 21 -7 30 -11 12 -15 12 -21 2 -6 -9
-9 -6 -9 10 0 12 5 22 11 22 6 0 9 12 7 27 -4 38 15 39 35 1 12 -25 15 -28 13
-11 -1 12 -5 26 -9 29 -4 4 -6 14 -6 23 1 13 2 13 6 -1 2 -10 11 -18 19 -18z
m172 -5 c-3 -3 -9 2 -12 12 -6 14 -5 15 5 6 7 -7 10 -15 7 -18z m-68 -20 c14
-19 14 -19 -2 -6 -10 7 -18 18 -18 24 0 6 1 8 3 6 1 -2 9 -13 17 -24z m-58 6
c2 7 9 9 17 5 10 -7 11 -10 1 -16 -8 -5 -10 -15 -6 -26 5 -14 9 -15 15 -5 6
10 10 9 15 -4 5 -14 2 -16 -14 -12 -18 5 -20 2 -16 -24 2 -16 0 -29 -5 -29
-16 0 -21 27 -10 48 8 15 6 23 -9 37 -11 10 -17 22 -14 27 4 6 9 5 14 -2 6
-10 9 -9 12 1z m196 -16 c-3 -3 -9 2 -12 12 -6 14 -5 15 5 6 7 -7 10 -15 7
-18z m-48 -26 c0 -14 -17 -10 -23 5 -4 10 -1 13 9 9 7 -3 14 -9 14 -14z m-70
-3 c0 -3 -4 -8 -10 -11 -5 -3 -10 -1 -10 4 0 6 5 11 10 11 6 0 10 -2 10 -4z
m-266 -56 c-6 -5 -24 21 -24 34 0 6 6 1 14 -10 8 -10 12 -21 10 -24z m-98 4
c-3 -8 1 -14 9 -14 8 0 24 -9 35 -20 11 -11 25 -20 30 -20 14 0 12 -9 -5 -26
-13 -14 -15 -13 -15 4 0 19 -24 46 -49 54 -8 2 -16 14 -18 27 -2 14 1 20 8 16
6 -4 8 -13 5 -21z m264 11 c0 -8 10 -23 22 -35 12 -11 19 -22 16 -26 -9 -8
-44 29 -50 54 -4 12 -2 22 3 22 5 0 9 -7 9 -15z m84 -7 c-4 -6 0 -15 7 -20 10
-7 7 -7 -8 -3 -19 5 -23 2 -23 -17 0 -18 -2 -20 -10 -8 -5 9 -5 19 0 26 6 6 6
15 2 19 -4 5 -1 4 7 0 11 -6 13 -4 8 8 -4 11 -2 14 8 10 8 -3 12 -10 9 -15z
m-251 -26 c4 9 6 9 6 1 2 -20 -16 -24 -30 -5 -13 15 -12 16 3 4 13 -10 17 -10
21 0z m104 -24 c2 -18 0 -20 -7 -8 -12 18 -13 30 -2 30 4 0 9 -10 9 -22z
m-157 -29 c0 -5 -4 -9 -8 -9 -5 0 -9 7 -9 15 0 8 4 12 9 9 4 -3 8 -9 8 -15z
m134 6 c-4 -8 -1 -15 5 -15 6 0 11 -5 11 -11 0 -8 -5 -8 -15 1 -17 14 -20 40
-5 40 5 0 7 -7 4 -15z m-74 -26 c0 8 2 12 5 9 3 -3 3 -13 -1 -22 -5 -13 -9
-14 -20 -5 -8 6 -11 16 -8 21 4 6 10 5 15 -3 7 -12 9 -12 9 0z m165 -18 c3 -5
1 -12 -5 -16 -5 -3 -10 1 -10 9 0 18 6 21 15 7z m-127 -152 c-3 -8 -7 -3 -11
10 -4 17 -3 21 5 13 5 -5 8 -16 6 -23z m-39 -84 c0 -5 -6 -1 -14 9 -8 11 -15
24 -15 30 0 5 7 1 15 -10 8 -10 14 -23 14 -29z m108 39 c-3 -3 -12 -4 -19 -1
-8 3 -5 6 6 6 11 1 17 -2 13 -5z m-61 -53 c-4 -5 -13 -8 -21 -5 -11 5 -12 9
-2 19 13 15 33 3 23 -14z m64 8 c-7 -11 -9 -33 -6 -47 l6 -27 -14 25 c-10 18
-11 29 -4 37 6 7 7 13 2 13 -5 0 -2 5 6 10 21 14 22 13 10 -11z"/>
<path d="M678 1712 c-19 -13 -24 -22 -18 -32 8 -12 10 -12 16 3 3 9 11 17 16
17 7 0 6 -5 -1 -14 -15 -18 -10 -74 8 -89 12 -10 14 -9 9 8 -3 11 -9 27 -12
36 -4 9 -1 23 8 32 8 8 12 17 9 21 -4 3 -1 6 5 6 5 0 13 -6 15 -12 4 -10 6
-10 6 0 1 8 -9 16 -21 20 -21 5 -21 6 -2 13 12 5 14 8 4 8 -8 1 -27 -7 -42
-17z"/>
<path d="M1143 1685 c3 -43 15 -59 33 -44 16 13 18 29 4 29 -5 0 -10 -7 -10
-16 0 -9 -5 -12 -12 -8 -8 5 -4 13 11 26 13 10 18 18 11 18 -7 0 -10 6 -7 14
4 10 0 14 -13 13 -14 -1 -18 -8 -17 -32z"/>
<path d="M607 1660 c-33 -38 -34 -51 -4 -77 18 -17 28 -19 55 -11 33 9 34 9
17 35 -9 14 -12 22 -5 18 13 -8 3 15 -22 49 -14 17 -16 17 -41 -14z m38 -20
c3 -5 1 -10 -4 -10 -6 0 -11 5 -11 10 0 6 2 10 4 10 3 0 8 -4 11 -10z m-6 -50
c0 -8 -4 -5 -10 8 -5 13 -13 21 -19 17 -6 -3 -7 1 -4 10 6 14 8 14 20 -2 7
-10 13 -25 13 -33z m31 0 c0 -5 -2 -10 -4 -10 -3 0 -8 5 -11 10 -3 6 -1 10 4
10 6 0 11 -4 11 -10z"/>
<path d="M1434 1610 c3 -14 6 -28 6 -32 0 -5 5 -8 11 -8 12 0 2 39 -13 55 -7
7 -9 2 -4 -15z"/>
<path d="M1171 1569 c21 -23 26 -35 19 -44 -13 -16 0 -28 17 -14 19 16 16 48
-4 56 -10 4 -22 12 -26 20 -4 7 -14 13 -22 13 -8 0 -1 -13 16 -31z"/>
<path d="M570 1559 c0 -5 -6 -7 -12 -3 -9 5 -9 3 1 -9 15 -19 33 -13 24 8 -6
17 -13 20 -13 4z"/>
<path d="M684 1555 c-4 -8 2 -23 13 -33 10 -9 13 -13 6 -8 -16 11 -17 -6 -2
-21 9 -9 7 -12 -7 -11 -14 2 -19 10 -20 30 -1 30 -10 45 -20 35 -4 -4 -2 -12
4 -20 6 -7 9 -23 5 -35 -4 -18 -1 -22 20 -22 13 0 42 -6 63 -14 22 -7 45 -11
52 -9 7 3 11 1 10 -4 -2 -4 5 -19 15 -33 15 -21 19 -23 27 -10 8 13 10 12 10
-2 0 -10 -7 -18 -16 -18 -14 0 -14 -3 -3 -17 7 -10 0 -5 -15 10 -16 16 -34 26
-42 23 -8 -3 -11 0 -8 8 6 15 -6 25 -36 31 -11 2 -20 -1 -20 -7 0 -5 7 -7 16
-4 9 3 14 1 12 -5 -6 -18 -22 -13 -33 10 -13 28 -24 27 -19 -1 4 -20 3 -20 -4
-4 -5 11 -18 21 -31 23 -15 2 -20 -1 -15 -9 4 -7 3 -8 -5 -4 -6 4 -9 12 -6 17
4 5 0 9 -7 9 -9 0 -9 3 -2 8 6 4 16 17 22 28 9 17 8 24 -3 34 -12 10 -15 10
-15 -1 -1 -10 -4 -9 -14 4 -12 15 -15 15 -26 3 -6 -9 -8 -21 -4 -27 5 -9 10
-7 16 7 6 14 7 12 4 -11 -6 -53 9 -74 80 -105 36 -17 71 -27 76 -23 6 3 8 2 5
-4 -4 -5 7 -23 23 -38 27 -26 36 -24 31 7 -2 15 78 -29 83 -46 2 -10 9 -15 14
-12 6 3 15 -6 20 -21 6 -16 11 -22 11 -15 1 7 6 10 11 7 6 -3 10 -2 10 4 0 5
-6 12 -12 14 -7 3 -4 6 6 6 20 1 20 1 0 17 -10 8 -13 13 -6 9 14 -7 17 11 3
20 -6 3 -15 -3 -21 -12 -8 -13 -10 -14 -9 -3 1 8 1 24 0 35 -1 16 -3 17 -10 5
-6 -8 -7 -18 -5 -22 3 -4 1 -8 -4 -8 -5 0 -9 14 -9 30 0 20 3 26 9 18 6 -10 8
-10 8 1 0 8 9 2 21 -13 20 -26 39 -34 39 -17 0 4 -15 23 -34 42 -19 18 -33 36
-30 40 2 4 -3 10 -12 13 -11 4 -14 1 -9 -13 6 -21 -3 -51 -16 -51 -6 0 -5 8 1
19 14 27 13 29 -12 33 -13 2 -27 13 -33 26 -6 15 -16 21 -27 18 -16 -4 -78 47
-78 65 0 4 -9 9 -21 12 -12 3 -18 10 -14 16 3 6 4 11 0 11 -3 0 -8 -7 -11 -15z
m-54 -61 c0 -8 -5 -12 -10 -9 -6 4 -8 11 -5 16 9 14 15 11 15 -7z m174 -139
c5 -25 4 -27 -10 -14 -8 9 -12 23 -8 33 8 21 11 18 18 -19z"/>
<path d="M840 1560 c0 -5 5 -10 10 -10 7 0 7 -7 0 -20 -15 -27 -6 -38 37 -46
26 -5 54 -23 91 -60 l55 -53 -5 -56 c-4 -51 -3 -56 14 -52 10 3 16 1 12 -4 -3
-5 -13 -9 -23 -9 -10 0 -25 -8 -35 -19 -14 -16 -15 -20 -2 -30 11 -9 15 -9 19
1 4 10 6 10 6 1 2 -25 30 -13 33 14 2 19 9 28 23 30 16 1 16 1 3 -3 -24 -7
-23 -23 1 -17 21 5 35 41 22 57 -5 6 -7 31 -6 55 2 25 0 52 -5 60 -7 11 -8 2
-5 -27 5 -36 3 -43 -12 -40 -11 2 -19 -6 -24 -22 -6 -23 -7 -23 -8 -3 -1 12 4
25 9 28 6 4 8 11 5 16 -4 5 -1 9 5 9 6 0 10 12 8 28 -4 35 -34 38 -31 2 2 -20
1 -22 -7 -9 -5 9 -6 27 0 45 4 16 9 23 9 15 1 -8 4 -11 8 -8 3 4 -6 18 -20 31
l-26 24 -8 -21 c-4 -12 -6 -26 -5 -30 1 -5 -1 -6 -6 -3 -5 3 -7 19 -4 37 3 22
1 30 -6 25 -6 -4 -21 5 -34 19 -26 30 -36 31 -55 8 -13 -17 -13 -16 -7 6 4 15
1 27 -7 32 -19 12 -29 11 -29 -1z m104 -66 c24 -30 25 -34 7 -25 -11 7 -21 16
-21 22 0 6 -6 7 -12 3 -7 -4 -10 -4 -6 1 4 4 3 14 -3 22 -6 7 -8 13 -3 13 5 0
22 -16 38 -36z m75 -69 c0 -5 -4 -3 -9 5 -5 8 -9 22 -9 30 0 16 17 -16 18 -35z
m76 -155 c3 -5 -1 -10 -10 -10 -9 0 -13 5 -10 10 3 6 8 10 10 10 2 0 7 -4 10
-10z"/>
<path d="M815 1550 c3 -5 2 -10 -4 -10 -6 0 -7 -7 -4 -17 4 -10 2 -14 -4 -10
-6 4 -13 1 -16 -5 -6 -19 3 -39 15 -32 6 4 5 10 -3 15 -10 6 -8 9 9 9 13 0 21
4 18 9 -4 5 -1 11 6 13 14 5 3 38 -12 38 -6 0 -8 -4 -5 -10z"/>
<path d="M1439 1543 c-1 -10 -1 -21 0 -25 0 -4 -8 -22 -19 -40 -22 -36 -26
-58 -10 -58 6 0 9 3 9 8 -4 23 3 34 17 28 13 -5 15 -1 12 19 -3 14 -1 25 4 25
4 0 7 14 6 30 -2 32 -17 42 -19 13z"/>
<path d="M515 1534 c-8 -8 -19 -13 -24 -10 -16 11 -40 -5 -34 -21 5 -12 3 -14
-7 -8 -10 6 -12 4 -7 -8 9 -24 0 -21 -28 8 -17 20 -29 24 -48 20 -63 -16 -80
-91 -31 -134 17 -14 30 -19 32 -12 2 6 8 9 13 5 5 -3 9 -1 9 5 0 6 7 8 15 5
10 -4 15 0 15 15 0 12 0 24 0 29 0 13 -23 7 -28 -7 -3 -9 0 -11 8 -6 9 5 11 4
6 -4 -6 -9 -11 -9 -21 -1 -14 11 -41 -11 -28 -24 4 -4 0 -4 -10 0 -9 3 -14 10
-11 15 3 5 1 9 -4 9 -5 0 -9 12 -9 27 l0 26 13 -24 c7 -13 13 -18 14 -11 0 6
9 12 20 12 11 0 20 4 20 8 0 11 69 12 76 1 3 -5 1 -9 -4 -9 -5 0 -15 -20 -22
-45 -7 -25 -15 -43 -18 -40 -3 2 -11 -3 -19 -13 -8 -9 -11 -11 -7 -3 4 9 2 12
-7 9 -8 -3 -15 -10 -15 -16 -1 -7 -3 -15 -4 -19 -1 -5 -2 -12 -1 -17 1 -4 -4
-16 -11 -25 -9 -12 -7 -11 9 2 21 18 21 18 16 -2 -3 -13 -1 -21 6 -21 7 0 9 6
5 13 -5 9 -4 9 5 1 10 -9 10 -17 2 -32 -16 -29 -14 -36 5 -17 12 12 19 13 24
5 5 -8 19 -10 40 -5 26 6 34 3 47 -14 8 -12 32 -30 53 -41 39 -20 65 -27 45
-12 -5 4 -15 16 -21 27 -7 12 -22 20 -37 20 -15 1 -30 5 -34 10 -4 4 -2 5 5 1
6 -4 12 -2 12 4 0 7 -9 14 -20 17 -11 3 -20 9 -20 14 0 5 11 3 25 -3 14 -6 25
-15 25 -20 0 -4 4 -8 8 -8 5 0 8 20 8 44 -1 24 -4 42 -7 40 -4 -2 -12 3 -19
11 -7 8 -19 15 -26 15 -8 0 -14 4 -14 10 0 13 49 -8 75 -32 17 -16 18 -20 5
-28 -8 -5 -12 -12 -8 -15 9 -9 50 14 43 25 -3 5 0 12 6 16 7 4 9 3 5 -4 -8
-13 10 -26 25 -17 6 4 -4 17 -25 32 -20 13 -41 21 -48 17 -6 -4 -8 -3 -4 4 3
6 2 13 -4 17 -5 3 -10 1 -10 -4 0 -6 -5 -11 -12 -11 -6 0 -8 3 -5 7 4 3 2 12
-4 19 -7 9 -7 19 1 34 10 18 8 22 -19 31 -19 7 -31 19 -33 32 -2 12 -9 21 -16
19 -8 -1 -11 2 -7 8 11 17 22 11 35 -20 7 -16 16 -30 21 -30 17 0 9 27 -16 54
-29 32 -34 47 -6 22 17 -16 19 -16 24 5 6 22 29 22 33 1 1 -7 0 -8 -3 -2 -9
18 -25 10 -20 -10 3 -11 1 -20 -5 -20 -5 0 -2 -7 6 -16 9 -8 16 -22 16 -30 0
-9 11 -14 30 -14 17 0 30 5 30 10 0 6 -4 10 -10 10 -5 0 -10 11 -10 25 0 29
-24 71 -45 79 -8 3 -21 -2 -30 -10z m-150 -44 c3 -5 2 -10 -4 -10 -5 0 -13 5
-16 10 -3 6 -2 10 4 10 5 0 13 -4 16 -10z m5 -32 c0 -5 -9 -4 -20 2 -11 6 -20
12 -20 14 0 2 9 2 20 -1 11 -3 20 -9 20 -15z m117 -57 c-1 -12 -6 -17 -16 -13
-12 4 -13 -3 -8 -41 4 -29 3 -47 -3 -47 -10 0 -13 20 -13 65 1 40 3 44 20 38
11 -4 14 -3 9 5 -4 7 -3 12 3 12 5 0 9 -9 8 -19z m45 -48 c7 -9 7 -13 -1 -13
-6 0 -11 5 -11 10 0 7 -7 7 -22 0 -21 -10 -21 -10 -5 3 9 8 18 23 18 33 1 18
2 17 6 -1 3 -11 10 -26 15 -32z m-92 -23 c0 -5 -5 -10 -10 -10 -6 0 -6 -7 2
-19 6 -11 19 -17 27 -14 13 4 13 3 2 -5 -14 -10 -7 -32 10 -32 6 0 7 5 3 12
-4 7 -3 8 4 4 6 -4 9 -13 6 -21 -4 -10 -12 -11 -36 -3 -20 7 -26 13 -18 18 15
9 4 30 -15 30 -12 0 -12 5 -3 25 11 25 28 34 28 15z m107 -64 c0 -11 -4 -12
-19 -3 -10 7 -18 20 -18 31 0 18 1 18 18 3 10 -10 19 -23 19 -31z m43 -97 c0
-6 -4 -7 -10 -4 -5 3 -10 11 -10 16 0 6 5 7 10 4 6 -3 10 -11 10 -16z"/>
<path d="M740 1541 c0 -4 7 -14 15 -24 13 -18 14 -18 24 2 15 27 15 27 -14 27
-14 0 -25 -2 -25 -5z"/>
<path d="M1480 1522 c0 -12 -5 -32 -11 -46 -9 -20 -9 -29 0 -40 10 -12 10 -20
-3 -38 -18 -26 -21 -54 -5 -63 6 -4 10 -1 8 6 -3 27 1 50 9 45 10 -6 9 35 -1
52 -5 8 -3 12 7 12 9 0 16 7 16 16 0 8 -4 12 -10 9 -5 -3 -10 -2 -10 4 0 5 4
12 9 15 10 7 9 31 -2 42 -4 4 -7 -2 -7 -14z"/>
<path d="M417 1513 c3 -7 9 -13 14 -13 5 0 9 6 9 13 0 8 -6 14 -14 14 -8 0
-12 -6 -9 -14z"/>
<path d="M1541 1464 c0 -11 3 -14 6 -6 3 7 2 16 -1 19 -3 4 -6 -2 -5 -13z"/>
<path d="M842 1453 c2 -9 9 -18 16 -21 18 -6 15 25 -4 32 -11 4 -14 1 -12 -11z"/>
<path d="M1549 1383 c-2 -35 -3 -73 -3 -85 -1 -13 6 -22 17 -24 9 -1 17 0 17
4 0 3 -8 14 -17 25 -17 19 -17 19 5 13 20 -7 22 -5 18 26 -3 18 -12 49 -20 68
l-15 35 -2 -62z"/>
<path d="M347 1343 c-11 -11 -8 -23 6 -23 8 0 14 7 14 15 0 16 -9 19 -20 8z"/>
<path d="M1582 1225 c-6 -14 -17 -25 -24 -25 -8 0 -5 -5 5 -11 9 -6 15 -14 12
-20 -4 -5 -2 -9 3 -9 5 0 12 9 15 20 3 11 0 20 -6 20 -8 0 -8 3 -2 8 10 7 20
42 12 42 -2 0 -9 -11 -15 -25z"/>
<path d="M1520 1220 c0 -5 7 -10 16 -10 8 0 12 5 9 10 -3 6 -10 10 -16 10 -5
0 -9 -4 -9 -10z"/>
<path d="M391 1174 c0 -11 3 -14 6 -6 3 7 2 16 -1 19 -3 4 -6 -2 -5 -13z"/>
<path d="M1596 1076 c-3 -13 -26 -46 -51 -74 -25 -27 -45 -54 -45 -59 0 -27
73 -63 85 -42 4 5 -2 9 -12 9 -19 0 -49 37 -39 48 3 3 6 1 6 -5 0 -5 7 -10 15
-10 18 0 19 9 4 24 -8 8 -7 17 5 34 10 15 16 18 16 9 0 -13 2 -13 11 0 9 13
10 12 5 -2 -3 -10 -2 -18 3 -18 4 0 8 25 9 55 1 59 -2 69 -12 31z"/>
<path d="M1566 992 c-3 -6 1 -13 10 -16 23 -9 28 -2 10 13 -8 7 -17 8 -20 3z"/>
<path d="M580 841 c0 -5 5 -13 10 -16 6 -3 10 -2 10 4 0 5 -4 13 -10 16 -5 3
-10 2 -10 -4z"/>
<path d="M1132 690 c0 -14 2 -19 5 -12 2 6 2 18 0 25 -3 6 -5 1 -5 -13z"/>
<path d="M545 691 c-3 -5 -1 -12 5 -16 5 -3 10 1 10 9 0 18 -6 21 -15 7z"/>
<path d="M630 679 c0 -5 5 -7 10 -4 6 3 10 8 10 11 0 2 -4 4 -10 4 -5 0 -10
-5 -10 -11z"/>
<path d="M630 656 c0 -2 8 -10 18 -17 15 -13 16 -12 3 4 -13 16 -21 21 -21 13z"/>
<path d="M1070 653 c0 -6 8 -17 18 -24 16 -13 16 -13 2 6 -8 11 -16 22 -17 24
-2 2 -3 0 -3 -6z"/>
<path d="M1258 615 c-3 -11 -9 -29 -13 -40 -3 -11 1 -7 10 8 9 16 15 33 12 40
-2 6 -6 3 -9 -8z"/>
<path d="M1311 623 c-1 -6 -4 -20 -7 -30 -5 -17 -5 -17 6 0 6 10 9 23 6 30 -3
9 -5 9 -5 0z"/>
<path d="M1196 603 c-6 -14 -5 -15 5 -6 7 7 10 15 7 18 -3 3 -9 -2 -12 -12z"/>
<path d="M948 603 c7 -3 16 -2 19 1 4 3 -2 6 -13 5 -11 0 -14 -3 -6 -6z"/>
<path d="M1355 589 c-4 -6 -5 -12 -2 -15 2 -3 7 2 10 11 7 17 1 20 -8 4z"/>
<path d="M1037 569 c7 -7 15 -10 18 -7 3 3 -2 9 -12 12 -14 6 -15 5 -6 -5z"/>
<path d="M441 557 c1 -18 17 -54 18 -40 1 6 4 18 7 26 3 8 -2 17 -10 20 -9 4
-16 1 -15 -6z"/>
<path d="M1286 555 c-9 -26 -7 -32 5 -12 6 10 9 21 6 23 -2 3 -7 -2 -11 -11z"/>
<path d="M1120 551 c0 -5 5 -13 10 -16 6 -3 10 -2 10 4 0 5 -4 13 -10 16 -5 3
-10 2 -10 -4z"/>
<path d="M1341 544 c0 -11 3 -14 6 -6 3 7 2 16 -1 19 -3 4 -6 -2 -5 -13z"/>
<path d="M501 532 c-15 -27 -16 -75 -3 -99 7 -13 8 -23 3 -23 -5 0 -12 8 -15
18 -3 9 -3 -5 0 -33 3 -27 10 -51 15 -53 5 -2 9 -8 9 -13 0 -6 -4 -8 -9 -5 -5
4 -1 -12 10 -34 21 -44 30 -51 23 -20 -2 11 -6 29 -8 40 -3 11 0 20 5 20 6 0
7 4 4 10 -3 5 -1 18 4 28 6 11 7 22 4 26 -4 4 -8 16 -10 27 -2 11 -10 27 -18
36 -14 13 -14 17 -1 27 8 6 17 21 20 32 8 27 -20 41 -33 16z"/>
<path d="M860 537 c0 -27 54 -77 82 -76 18 0 16 3 -12 13 -23 8 -41 24 -52 47
-12 21 -18 27 -18 16z"/>
<path d="M549 526 c-1 -3 -2 -9 -3 -13 -1 -5 -4 -13 -8 -19 -10 -15 5 -67 21
-72 9 -3 11 2 7 19 -7 24 -7 24 8 -1 14 -23 15 -23 17 -5 5 61 3 68 -18 82
-13 9 -24 13 -24 9z m35 -47 c-7 -12 -34 -11 -34 1 0 5 8 6 18 3 15 -6 16 -5
2 13 -14 18 -14 18 2 5 10 -7 15 -17 12 -22z"/>
<path d="M702 493 c-9 -4 -10 -8 -2 -18 6 -7 10 -17 9 -21 -1 -5 3 -22 10 -39
9 -23 14 -26 21 -15 5 9 5 19 -1 26 -7 8 -4 17 8 29 16 17 16 18 -2 31 -20 15
-23 15 -43 7z m32 -38 c-4 -8 -8 -15 -10 -15 -2 0 -4 7 -4 15 0 8 4 15 10 15
5 0 7 -7 4 -15z"/>
<path d="M1048 363 c7 -3 16 -2 19 1 4 3 -2 6 -13 5 -11 0 -14 -3 -6 -6z"/>
<path d="M1088 353 c7 -3 16 -2 19 1 4 3 -2 6 -13 5 -11 0 -14 -3 -6 -6z"/>
<path d="M954 284 c-7 -29 9 -74 27 -74 7 0 5 8 -5 19 -13 14 -16 28 -11 50 8
37 -2 42 -11 5z"/>
<path d="M1447 283 c-3 -5 1 -19 9 -33 l14 -25 -6 30 c-8 35 -10 39 -17 28z"/>
<path d="M635 238 c2 -28 35 -75 35 -51 0 7 -4 15 -10 18 -13 8 -13 35 0 35 5
0 13 -17 16 -38 3 -23 14 -44 26 -51 29 -18 35 -5 11 22 -12 12 -28 38 -36 58
-18 44 -45 49 -42 7z"/>
<path d="M1175 249 c-4 -6 -5 -12 -2 -15 2 -3 7 2 10 11 7 17 1 20 -8 4z"/>
<path d="M1362 231 c-6 -17 -9 -31 -6 -31 7 0 25 52 20 57 -2 2 -8 -10 -14
-26z"/>
<path d="M1273 226 c1 -11 9 -21 17 -23 10 -3 11 -2 4 4 -6 4 -14 15 -17 23
-5 11 -6 9 -4 -4z"/>
<path d="M1121 214 c0 -11 3 -14 6 -6 3 7 2 16 -1 19 -3 4 -6 -2 -5 -13z"/>
<path d="M1225 209 c-4 -6 -5 -12 -2 -15 2 -3 7 2 10 11 7 17 1 20 -8 4z"/>
<path d="M1410 210 c0 -6 7 -10 15 -10 8 0 15 2 15 4 0 2 -7 6 -15 10 -8 3
-15 1 -15 -4z"/>
<path d="M1008 203 c7 -3 16 -2 19 1 4 3 -2 6 -13 5 -11 0 -14 -3 -6 -6z"/>
</g>
</svg>
